<mxfile host="Electron" modified="2024-05-15T19:42:01.708Z" agent="Mozilla/5.0 (Windows NT 10.0; Win64; x64) AppleWebKit/537.36 (KHTML, like Gecko) draw.io/24.2.5 Chrome/120.0.6099.109 Electron/28.1.0 Safari/537.36" etag="fZuLmWPNNzIkJEwh774c" version="24.2.5" type="device">
  <diagram name="Page-1" id="YLJ0IZr-Ib7k4HzRPvkb">
    <mxGraphModel dx="1615" dy="968" grid="1" gridSize="10" guides="1" tooltips="1" connect="1" arrows="1" fold="1" page="1" pageScale="1" pageWidth="1600" pageHeight="900" math="0" shadow="0">
      <root>
        <mxCell id="0" />
        <mxCell id="1" parent="0" />
        <mxCell id="5_bJZATuuQAAXsXaT6q8-4" value="recipe" style="swimlane;childLayout=stackLayout;horizontal=1;startSize=50;horizontalStack=0;rounded=1;fontSize=14;fontStyle=0;strokeWidth=2;resizeParent=0;resizeLast=1;shadow=0;dashed=0;align=center;arcSize=4;whiteSpace=wrap;html=1;" parent="1" vertex="1">
          <mxGeometry x="610" y="170" width="160" height="408" as="geometry">
            <mxRectangle x="610" y="240" width="80" height="50" as="alternateBounds" />
          </mxGeometry>
        </mxCell>
        <mxCell id="5_bJZATuuQAAXsXaT6q8-6" value="&lt;u&gt;&lt;font style=&quot;font-size: 14px;&quot;&gt;recipe_id&lt;/font&gt;&lt;/u&gt;&lt;div&gt;&lt;span style=&quot;font-size: 14px;&quot;&gt;type&lt;/span&gt;&lt;/div&gt;&lt;div&gt;&lt;span style=&quot;font-size: 14px;&quot;&gt;dificulty&lt;/span&gt;&lt;/div&gt;&lt;div&gt;&lt;span style=&quot;font-size: 14px;&quot;&gt;name&lt;/span&gt;&lt;/div&gt;&lt;div&gt;&lt;span style=&quot;font-size: 14px;&quot;&gt;description&lt;/span&gt;&lt;/div&gt;&lt;div&gt;&lt;span style=&quot;font-size: 14px;&quot;&gt;{tips}&lt;/span&gt;&lt;/div&gt;&lt;div&gt;&lt;span style=&quot;font-size: 14px;&quot;&gt;preparation_time&lt;/span&gt;&lt;/div&gt;&lt;div&gt;&lt;span style=&quot;font-size: 14px;&quot;&gt;cooking_time&lt;/span&gt;&lt;/div&gt;&lt;div&gt;&lt;span style=&quot;font-size: 14px;&quot;&gt;{steps}&lt;/span&gt;&lt;/div&gt;&lt;div&gt;&lt;span style=&quot;font-size: 14px;&quot;&gt;portions&lt;/span&gt;&lt;/div&gt;&lt;div&gt;&lt;span style=&quot;font-size: 14px;&quot;&gt;chefs&lt;/span&gt;&lt;/div&gt;&lt;div&gt;&lt;span style=&quot;font-size: 14px;&quot;&gt;{tags}&lt;/span&gt;&lt;/div&gt;&lt;div&gt;&lt;span style=&quot;font-size: 14px;&quot;&gt;carbs_per_portion&lt;/span&gt;&lt;/div&gt;&lt;div&gt;&lt;span style=&quot;font-size: 14px;&quot;&gt;fat_per_portion&lt;/span&gt;&lt;/div&gt;&lt;div&gt;&lt;span style=&quot;font-size: 14px;&quot;&gt;protein_per_portion&lt;/span&gt;&lt;/div&gt;&lt;div&gt;&lt;span style=&quot;font-size: 14px;&quot;&gt;cal_per_portion()&lt;/span&gt;&lt;/div&gt;&lt;div&gt;&lt;span style=&quot;font-size: 14px;&quot;&gt;main_ingredient&lt;/span&gt;&lt;/div&gt;&lt;div&gt;&lt;div style=&quot;font-size: 13px;&quot;&gt;&lt;div style=&quot;font-size: 14px;&quot;&gt;image&lt;/div&gt;&lt;div style=&quot;font-size: 14px;&quot;&gt;image_description&lt;/div&gt;&lt;/div&gt;&lt;/div&gt;" style="text;html=1;align=center;verticalAlign=middle;resizable=0;points=[];autosize=1;strokeColor=none;fillColor=none;" parent="5_bJZATuuQAAXsXaT6q8-4" vertex="1">
          <mxGeometry y="50" width="160" height="358" as="geometry" />
        </mxCell>
        <mxCell id="5_bJZATuuQAAXsXaT6q8-485" style="edgeStyle=orthogonalEdgeStyle;rounded=0;orthogonalLoop=1;jettySize=auto;html=1;exitX=0.5;exitY=1;exitDx=0;exitDy=0;shape=link;" parent="1" source="5_bJZATuuQAAXsXaT6q8-11" target="5_bJZATuuQAAXsXaT6q8-4" edge="1">
          <mxGeometry relative="1" as="geometry" />
        </mxCell>
        <mxCell id="5_bJZATuuQAAXsXaT6q8-486" style="edgeStyle=orthogonalEdgeStyle;rounded=0;orthogonalLoop=1;jettySize=auto;html=1;exitX=0.5;exitY=0;exitDx=0;exitDy=0;entryX=0;entryY=0.25;entryDx=0;entryDy=0;" parent="1" source="5_bJZATuuQAAXsXaT6q8-11" target="5_bJZATuuQAAXsXaT6q8-434" edge="1">
          <mxGeometry relative="1" as="geometry" />
        </mxCell>
        <mxCell id="5_bJZATuuQAAXsXaT6q8-11" value="recipe_cuisine" style="shape=rhombus;perimeter=rhombusPerimeter;whiteSpace=wrap;html=1;align=center;" parent="1" vertex="1">
          <mxGeometry x="630" y="40" width="120" height="60" as="geometry" />
        </mxCell>
        <mxCell id="5_bJZATuuQAAXsXaT6q8-434" value="cuisine" style="swimlane;childLayout=stackLayout;horizontal=1;startSize=50;horizontalStack=0;rounded=1;fontSize=14;fontStyle=0;strokeWidth=2;resizeParent=0;resizeLast=1;shadow=0;dashed=0;align=center;arcSize=4;whiteSpace=wrap;html=1;" parent="1" vertex="1">
          <mxGeometry x="850" y="300" width="160" height="140" as="geometry" />
        </mxCell>
        <mxCell id="5_bJZATuuQAAXsXaT6q8-436" value="&lt;font size=&quot;1&quot; style=&quot;&quot;&gt;&lt;u style=&quot;font-size: 14px;&quot;&gt;cuisine_id&lt;/u&gt;&lt;/font&gt;&lt;div&gt;&lt;span style=&quot;font-size: 14px;&quot;&gt;name&lt;/span&gt;&lt;/div&gt;&lt;div&gt;&lt;div style=&quot;font-size: 14px;&quot;&gt;image&lt;/div&gt;&lt;div style=&quot;font-size: 14px;&quot;&gt;image_description&lt;/div&gt;&lt;/div&gt;" style="text;html=1;align=center;verticalAlign=middle;resizable=0;points=[];autosize=1;strokeColor=none;fillColor=none;" parent="5_bJZATuuQAAXsXaT6q8-434" vertex="1">
          <mxGeometry y="50" width="160" height="90" as="geometry" />
        </mxCell>
        <mxCell id="5_bJZATuuQAAXsXaT6q8-444" style="edgeStyle=orthogonalEdgeStyle;rounded=0;orthogonalLoop=1;jettySize=auto;html=1;exitX=0;exitY=0.5;exitDx=0;exitDy=0;endArrow=none;endFill=0;entryX=1.007;entryY=0.256;entryDx=0;entryDy=0;entryPerimeter=0;" parent="1" source="5_bJZATuuQAAXsXaT6q8-440" target="5_bJZATuuQAAXsXaT6q8-443" edge="1">
          <mxGeometry relative="1" as="geometry">
            <mxPoint x="230" y="270" as="targetPoint" />
          </mxGeometry>
        </mxCell>
        <mxCell id="5_bJZATuuQAAXsXaT6q8-440" value="recipe_meal" style="shape=rhombus;perimeter=rhombusPerimeter;whiteSpace=wrap;html=1;align=center;" parent="1" vertex="1">
          <mxGeometry x="365" y="140" width="120" height="60" as="geometry" />
        </mxCell>
        <mxCell id="5_bJZATuuQAAXsXaT6q8-441" value="meal_type" style="swimlane;childLayout=stackLayout;horizontal=1;startSize=50;horizontalStack=0;rounded=1;fontSize=14;fontStyle=0;strokeWidth=2;resizeParent=0;resizeLast=1;shadow=0;dashed=0;align=center;arcSize=4;whiteSpace=wrap;html=1;" parent="1" vertex="1">
          <mxGeometry x="80" y="50" width="155" height="130" as="geometry" />
        </mxCell>
        <mxCell id="5_bJZATuuQAAXsXaT6q8-443" value="&lt;font style=&quot;font-size: 14px;&quot;&gt;&lt;u&gt;meal_id&lt;/u&gt;&lt;/font&gt;&lt;div&gt;&lt;font style=&quot;font-size: 14px;&quot;&gt;type_name&lt;/font&gt;&lt;/div&gt;&lt;div&gt;&lt;font style=&quot;font-size: 14px;&quot;&gt;&lt;div&gt;image&lt;/div&gt;&lt;div&gt;image_description&lt;/div&gt;&lt;/font&gt;&lt;/div&gt;" style="text;html=1;align=center;verticalAlign=middle;resizable=0;points=[];autosize=1;strokeColor=none;fillColor=none;" parent="5_bJZATuuQAAXsXaT6q8-441" vertex="1">
          <mxGeometry y="50" width="155" height="80" as="geometry" />
        </mxCell>
        <mxCell id="5_bJZATuuQAAXsXaT6q8-445" style="edgeStyle=orthogonalEdgeStyle;rounded=0;orthogonalLoop=1;jettySize=auto;html=1;exitX=1;exitY=0.5;exitDx=0;exitDy=0;shape=link;entryX=0.004;entryY=0.114;entryDx=0;entryDy=0;entryPerimeter=0;" parent="1" source="5_bJZATuuQAAXsXaT6q8-440" target="5_bJZATuuQAAXsXaT6q8-4" edge="1">
          <mxGeometry relative="1" as="geometry">
            <mxPoint x="610" y="270" as="targetPoint" />
          </mxGeometry>
        </mxCell>
        <mxCell id="5_bJZATuuQAAXsXaT6q8-451" style="edgeStyle=orthogonalEdgeStyle;rounded=0;orthogonalLoop=1;jettySize=auto;html=1;exitX=0;exitY=0.5;exitDx=0;exitDy=0;endArrow=none;endFill=0;entryX=1.007;entryY=0.478;entryDx=0;entryDy=0;entryPerimeter=0;" parent="1" source="5_bJZATuuQAAXsXaT6q8-446" target="5_bJZATuuQAAXsXaT6q8-450" edge="1">
          <mxGeometry relative="1" as="geometry">
            <mxPoint x="230" y="380" as="targetPoint" />
          </mxGeometry>
        </mxCell>
        <mxCell id="5_bJZATuuQAAXsXaT6q8-452" style="edgeStyle=orthogonalEdgeStyle;rounded=0;orthogonalLoop=1;jettySize=auto;html=1;exitX=1;exitY=0.5;exitDx=0;exitDy=0;shape=link;entryX=-0.031;entryY=0.377;entryDx=0;entryDy=0;entryPerimeter=0;" parent="1" source="5_bJZATuuQAAXsXaT6q8-446" target="5_bJZATuuQAAXsXaT6q8-6" edge="1">
          <mxGeometry relative="1" as="geometry">
            <mxPoint x="612" y="457" as="targetPoint" />
          </mxGeometry>
        </mxCell>
        <mxCell id="5_bJZATuuQAAXsXaT6q8-446" value="recipe_equipment" style="shape=rhombus;perimeter=rhombusPerimeter;whiteSpace=wrap;html=1;align=center;" parent="1" vertex="1">
          <mxGeometry x="345" y="290" width="120" height="60" as="geometry" />
        </mxCell>
        <mxCell id="5_bJZATuuQAAXsXaT6q8-449" value="equipment" style="swimlane;childLayout=stackLayout;horizontal=1;startSize=50;horizontalStack=0;rounded=1;fontSize=14;fontStyle=0;strokeWidth=2;resizeParent=0;resizeLast=1;shadow=0;dashed=0;align=center;arcSize=4;whiteSpace=wrap;html=1;" parent="1" vertex="1">
          <mxGeometry x="85" y="250" width="155" height="150" as="geometry" />
        </mxCell>
        <mxCell id="5_bJZATuuQAAXsXaT6q8-450" value="&lt;font style=&quot;font-size: 14px;&quot;&gt;&lt;u&gt;equipment_id&lt;/u&gt;&lt;/font&gt;&lt;div style=&quot;font-size: 14px;&quot;&gt;name&lt;/div&gt;&lt;div style=&quot;font-size: 14px;&quot;&gt;instructions&lt;/div&gt;&lt;div style=&quot;font-size: 14px;&quot;&gt;&lt;span style=&quot;background-color: initial;&quot;&gt;image&lt;/span&gt;&lt;/div&gt;&lt;div style=&quot;font-size: 14px;&quot;&gt;image_description&lt;/div&gt;" style="text;html=1;align=center;verticalAlign=middle;resizable=0;points=[];autosize=1;strokeColor=none;fillColor=none;" parent="5_bJZATuuQAAXsXaT6q8-449" vertex="1">
          <mxGeometry y="50" width="155" height="100" as="geometry" />
        </mxCell>
        <mxCell id="5_bJZATuuQAAXsXaT6q8-453" style="edgeStyle=orthogonalEdgeStyle;rounded=0;orthogonalLoop=1;jettySize=auto;html=1;exitX=0;exitY=0.5;exitDx=0;exitDy=0;endArrow=none;endFill=0;entryX=1.006;entryY=0.361;entryDx=0;entryDy=0;entryPerimeter=0;" parent="1" source="5_bJZATuuQAAXsXaT6q8-454" target="5_bJZATuuQAAXsXaT6q8-456" edge="1">
          <mxGeometry relative="1" as="geometry">
            <mxPoint x="230" y="620" as="targetPoint" />
          </mxGeometry>
        </mxCell>
        <mxCell id="5_bJZATuuQAAXsXaT6q8-454" value="recipe_ingredients" style="shape=rhombus;perimeter=rhombusPerimeter;whiteSpace=wrap;html=1;align=center;" parent="1" vertex="1">
          <mxGeometry x="367.5" y="510" width="120" height="60" as="geometry" />
        </mxCell>
        <mxCell id="5_bJZATuuQAAXsXaT6q8-455" value="ingredients" style="swimlane;childLayout=stackLayout;horizontal=1;startSize=50;horizontalStack=0;rounded=1;fontSize=14;fontStyle=0;strokeWidth=2;resizeParent=0;resizeLast=1;shadow=0;dashed=0;align=center;arcSize=4;whiteSpace=wrap;html=1;" parent="1" vertex="1">
          <mxGeometry x="85" y="450" width="155" height="160" as="geometry" />
        </mxCell>
        <mxCell id="5_bJZATuuQAAXsXaT6q8-456" value="&lt;font style=&quot;font-size: 14px;&quot;&gt;&lt;u&gt;ingredient_id&lt;/u&gt;&lt;/font&gt;&lt;div style=&quot;font-size: 14px;&quot;&gt;name&lt;/div&gt;&lt;div style=&quot;font-size: 14px;&quot;&gt;quantity&lt;/div&gt;&lt;div style=&quot;font-size: 14px;&quot;&gt;calories&lt;/div&gt;&lt;div style=&quot;font-size: 14px;&quot;&gt;image&lt;/div&gt;&lt;div style=&quot;font-size: 14px;&quot;&gt;image_description&lt;/div&gt;" style="text;html=1;align=center;verticalAlign=middle;resizable=0;points=[];autosize=1;strokeColor=none;fillColor=none;" parent="5_bJZATuuQAAXsXaT6q8-455" vertex="1">
          <mxGeometry y="50" width="155" height="110" as="geometry" />
        </mxCell>
        <mxCell id="5_bJZATuuQAAXsXaT6q8-457" style="edgeStyle=orthogonalEdgeStyle;rounded=0;orthogonalLoop=1;jettySize=auto;html=1;exitX=1;exitY=0.5;exitDx=0;exitDy=0;entryX=-0.006;entryY=0.664;entryDx=0;entryDy=0;entryPerimeter=0;shape=link;" parent="1" source="5_bJZATuuQAAXsXaT6q8-454" target="5_bJZATuuQAAXsXaT6q8-6" edge="1">
          <mxGeometry relative="1" as="geometry" />
        </mxCell>
        <mxCell id="5_bJZATuuQAAXsXaT6q8-465" style="edgeStyle=orthogonalEdgeStyle;rounded=0;orthogonalLoop=1;jettySize=auto;html=1;exitX=0.5;exitY=0;exitDx=0;exitDy=0;shape=link;" parent="1" source="5_bJZATuuQAAXsXaT6q8-459" target="5_bJZATuuQAAXsXaT6q8-456" edge="1">
          <mxGeometry relative="1" as="geometry" />
        </mxCell>
        <mxCell id="5_bJZATuuQAAXsXaT6q8-466" style="edgeStyle=orthogonalEdgeStyle;rounded=0;orthogonalLoop=1;jettySize=auto;html=1;exitX=1;exitY=0.5;exitDx=0;exitDy=0;entryX=-0.008;entryY=0.441;entryDx=0;entryDy=0;entryPerimeter=0;" parent="1" source="5_bJZATuuQAAXsXaT6q8-459" target="5_bJZATuuQAAXsXaT6q8-464" edge="1">
          <mxGeometry relative="1" as="geometry" />
        </mxCell>
        <mxCell id="5_bJZATuuQAAXsXaT6q8-459" value="ingredient_group" style="shape=rhombus;perimeter=rhombusPerimeter;whiteSpace=wrap;html=1;align=center;" parent="1" vertex="1">
          <mxGeometry x="102.5" y="720" width="120" height="60" as="geometry" />
        </mxCell>
        <mxCell id="5_bJZATuuQAAXsXaT6q8-460" value="food_groups" style="swimlane;childLayout=stackLayout;horizontal=1;startSize=50;horizontalStack=0;rounded=1;fontSize=14;fontStyle=0;strokeWidth=2;resizeParent=0;resizeLast=1;shadow=0;dashed=0;align=center;arcSize=4;whiteSpace=wrap;html=1;" parent="1" vertex="1">
          <mxGeometry x="345" y="660" width="165" height="140" as="geometry" />
        </mxCell>
        <mxCell id="5_bJZATuuQAAXsXaT6q8-464" value="&lt;span style=&quot;font-size: 14px;&quot;&gt;&lt;u&gt;group_id&lt;/u&gt;&lt;/span&gt;&lt;div&gt;&lt;span style=&quot;font-size: 14px;&quot;&gt;summary&lt;br&gt;&lt;/span&gt;&lt;div&gt;&lt;div style=&quot;font-size: 14px;&quot;&gt;image&lt;/div&gt;&lt;div style=&quot;font-size: 14px;&quot;&gt;image_description&lt;/div&gt;&lt;/div&gt;&lt;/div&gt;" style="text;html=1;align=center;verticalAlign=middle;resizable=0;points=[];autosize=1;strokeColor=none;fillColor=none;" parent="5_bJZATuuQAAXsXaT6q8-460" vertex="1">
          <mxGeometry y="50" width="165" height="90" as="geometry" />
        </mxCell>
        <mxCell id="5_bJZATuuQAAXsXaT6q8-472" style="edgeStyle=orthogonalEdgeStyle;rounded=0;orthogonalLoop=1;jettySize=auto;html=1;exitX=0.5;exitY=1;exitDx=0;exitDy=0;entryX=0.5;entryY=0;entryDx=0;entryDy=0;endArrow=none;endFill=0;" parent="1" source="5_bJZATuuQAAXsXaT6q8-467" target="5_bJZATuuQAAXsXaT6q8-468" edge="1">
          <mxGeometry relative="1" as="geometry" />
        </mxCell>
        <mxCell id="5_bJZATuuQAAXsXaT6q8-467" value="recipe_theme" style="shape=rhombus;perimeter=rhombusPerimeter;whiteSpace=wrap;html=1;align=center;" parent="1" vertex="1">
          <mxGeometry x="630" y="630" width="120" height="60" as="geometry" />
        </mxCell>
        <mxCell id="5_bJZATuuQAAXsXaT6q8-468" value="themes" style="swimlane;childLayout=stackLayout;horizontal=1;startSize=50;horizontalStack=0;rounded=1;fontSize=14;fontStyle=0;strokeWidth=2;resizeParent=0;resizeLast=1;shadow=0;dashed=0;align=center;arcSize=4;whiteSpace=wrap;html=1;" parent="1" vertex="1">
          <mxGeometry x="610" y="750" width="160" height="125" as="geometry" />
        </mxCell>
        <mxCell id="5_bJZATuuQAAXsXaT6q8-471" value="&lt;div style=&quot;font-size: 14px;&quot;&gt;&lt;u&gt;theme_id&lt;/u&gt;&lt;/div&gt;&lt;div style=&quot;font-size: 14px;&quot;&gt;summary&lt;/div&gt;&lt;div style=&quot;font-size: 14px;&quot;&gt;image&lt;/div&gt;&lt;div style=&quot;font-size: 14px;&quot;&gt;image_description&lt;/div&gt;" style="text;html=1;align=center;verticalAlign=middle;resizable=0;points=[];autosize=1;strokeColor=none;fillColor=none;" parent="5_bJZATuuQAAXsXaT6q8-468" vertex="1">
          <mxGeometry y="50" width="160" height="75" as="geometry" />
        </mxCell>
        <mxCell id="5_bJZATuuQAAXsXaT6q8-474" value="users" style="swimlane;childLayout=stackLayout;horizontal=1;startSize=50;horizontalStack=0;rounded=1;fontSize=14;fontStyle=0;strokeWidth=2;resizeParent=0;resizeLast=1;shadow=0;dashed=0;align=center;arcSize=4;whiteSpace=wrap;html=1;" parent="1" vertex="1">
          <mxGeometry x="1330" y="90" width="160" height="120" as="geometry" />
        </mxCell>
        <mxCell id="5_bJZATuuQAAXsXaT6q8-476" value="&lt;font style=&quot;font-size: 14px;&quot;&gt;&lt;u&gt;user_id&lt;/u&gt;&lt;/font&gt;&lt;div&gt;&lt;font style=&quot;font-size: 14px;&quot;&gt;username&lt;/font&gt;&lt;/div&gt;&lt;div&gt;&lt;font style=&quot;font-size: 14px;&quot;&gt;password&lt;/font&gt;&lt;/div&gt;" style="text;html=1;align=center;verticalAlign=middle;resizable=0;points=[];autosize=1;strokeColor=none;fillColor=none;" parent="5_bJZATuuQAAXsXaT6q8-474" vertex="1">
          <mxGeometry y="50" width="160" height="70" as="geometry" />
        </mxCell>
        <mxCell id="5_bJZATuuQAAXsXaT6q8-483" style="edgeStyle=orthogonalEdgeStyle;rounded=0;orthogonalLoop=1;jettySize=auto;html=1;exitX=1;exitY=0.5;exitDx=0;exitDy=0;entryX=0;entryY=0.25;entryDx=0;entryDy=0;" parent="1" source="5_bJZATuuQAAXsXaT6q8-477" target="5_bJZATuuQAAXsXaT6q8-474" edge="1">
          <mxGeometry relative="1" as="geometry" />
        </mxCell>
        <mxCell id="5_bJZATuuQAAXsXaT6q8-477" value="admin" style="swimlane;childLayout=stackLayout;horizontal=1;startSize=50;horizontalStack=0;rounded=1;fontSize=14;fontStyle=0;strokeWidth=2;resizeParent=0;resizeLast=1;shadow=0;dashed=0;align=center;arcSize=4;whiteSpace=wrap;html=1;" parent="1" vertex="1">
          <mxGeometry x="1080" y="30" width="140" height="70" as="geometry" />
        </mxCell>
        <mxCell id="5_bJZATuuQAAXsXaT6q8-484" style="edgeStyle=orthogonalEdgeStyle;rounded=0;orthogonalLoop=1;jettySize=auto;html=1;" parent="1" source="5_bJZATuuQAAXsXaT6q8-482" target="5_bJZATuuQAAXsXaT6q8-476" edge="1">
          <mxGeometry relative="1" as="geometry" />
        </mxCell>
        <mxCell id="5_bJZATuuQAAXsXaT6q8-480" value="chef" style="swimlane;childLayout=stackLayout;horizontal=1;startSize=50;horizontalStack=0;rounded=1;fontSize=14;fontStyle=0;strokeWidth=2;resizeParent=0;resizeLast=1;shadow=0;dashed=0;align=center;arcSize=4;whiteSpace=wrap;html=1;" parent="1" vertex="1">
          <mxGeometry x="1070" y="160" width="170" height="210" as="geometry" />
        </mxCell>
        <mxCell id="5_bJZATuuQAAXsXaT6q8-482" value="&lt;span style=&quot;font-size: 14px;&quot;&gt;first_name&lt;/span&gt;&lt;div&gt;&lt;span style=&quot;font-size: 14px;&quot;&gt;last_name&lt;/span&gt;&lt;/div&gt;&lt;div&gt;&lt;span style=&quot;font-size: 14px;&quot;&gt;phone_number&lt;/span&gt;&lt;/div&gt;&lt;div&gt;&lt;span style=&quot;font-size: 14px;&quot;&gt;birth_date&lt;/span&gt;&lt;/div&gt;&lt;div&gt;&lt;span style=&quot;font-size: 14px;&quot;&gt;age()&lt;/span&gt;&lt;/div&gt;&lt;div&gt;&lt;span style=&quot;font-size: 14px;&quot;&gt;experience&lt;/span&gt;&lt;/div&gt;&lt;div&gt;&lt;span style=&quot;font-size: 14px;&quot;&gt;profession_info&lt;/span&gt;&lt;/div&gt;&lt;div&gt;&lt;div style=&quot;font-size: 14px;&quot;&gt;image&lt;/div&gt;&lt;div style=&quot;font-size: 14px;&quot;&gt;image_description&lt;/div&gt;&lt;/div&gt;" style="text;html=1;align=center;verticalAlign=middle;resizable=0;points=[];autosize=1;strokeColor=none;fillColor=none;" parent="5_bJZATuuQAAXsXaT6q8-480" vertex="1">
          <mxGeometry y="50" width="170" height="160" as="geometry" />
        </mxCell>
        <mxCell id="5_bJZATuuQAAXsXaT6q8-489" style="edgeStyle=orthogonalEdgeStyle;rounded=0;orthogonalLoop=1;jettySize=auto;html=1;endArrow=none;endFill=0;entryX=0.594;entryY=-0.021;entryDx=0;entryDy=0;entryPerimeter=0;" parent="1" source="5_bJZATuuQAAXsXaT6q8-487" target="5_bJZATuuQAAXsXaT6q8-434" edge="1">
          <mxGeometry relative="1" as="geometry">
            <mxPoint x="930" y="300" as="targetPoint" />
          </mxGeometry>
        </mxCell>
        <mxCell id="5_bJZATuuQAAXsXaT6q8-487" value="chef_cuisine" style="shape=rhombus;perimeter=rhombusPerimeter;whiteSpace=wrap;html=1;align=center;" parent="1" vertex="1">
          <mxGeometry x="870" y="170" width="120" height="60" as="geometry" />
        </mxCell>
        <mxCell id="5_bJZATuuQAAXsXaT6q8-488" style="edgeStyle=orthogonalEdgeStyle;rounded=0;orthogonalLoop=1;jettySize=auto;html=1;exitX=1;exitY=0.5;exitDx=0;exitDy=0;entryX=-0.02;entryY=0.19;entryDx=0;entryDy=0;entryPerimeter=0;shape=link;" parent="1" source="5_bJZATuuQAAXsXaT6q8-487" target="5_bJZATuuQAAXsXaT6q8-480" edge="1">
          <mxGeometry relative="1" as="geometry" />
        </mxCell>
        <mxCell id="FVXXeiRj1QKPrUbn_lMj-1" value="episode" style="swimlane;childLayout=stackLayout;horizontal=1;startSize=50;horizontalStack=0;rounded=1;fontSize=14;fontStyle=0;strokeWidth=2;resizeParent=0;resizeLast=1;shadow=0;dashed=0;align=center;arcSize=4;whiteSpace=wrap;html=1;" parent="1" vertex="1">
          <mxGeometry x="1410" y="610" width="160" height="120" as="geometry" />
        </mxCell>
        <mxCell id="FVXXeiRj1QKPrUbn_lMj-3" value="&lt;u&gt;&lt;font style=&quot;font-size: 14px;&quot;&gt;episode_id&lt;/font&gt;&lt;/u&gt;&lt;div&gt;&lt;div style=&quot;font-size: 14px;&quot;&gt;image&lt;/div&gt;&lt;div style=&quot;font-size: 14px;&quot;&gt;image_description&lt;/div&gt;&lt;/div&gt;" style="text;html=1;align=center;verticalAlign=middle;resizable=0;points=[];autosize=1;strokeColor=none;fillColor=none;" parent="FVXXeiRj1QKPrUbn_lMj-1" vertex="1">
          <mxGeometry y="50" width="160" height="70" as="geometry" />
        </mxCell>
        <mxCell id="FVXXeiRj1QKPrUbn_lMj-4" style="edgeStyle=orthogonalEdgeStyle;rounded=0;orthogonalLoop=1;jettySize=auto;html=1;exitX=0.5;exitY=0;exitDx=0;exitDy=0;entryX=0.502;entryY=0.994;entryDx=0;entryDy=0;entryPerimeter=0;shape=link;" parent="1" source="5_bJZATuuQAAXsXaT6q8-467" target="5_bJZATuuQAAXsXaT6q8-6" edge="1">
          <mxGeometry relative="1" as="geometry" />
        </mxCell>
        <mxCell id="UxKgNipJyTwT5KoMr4Kn-3" style="edgeStyle=orthogonalEdgeStyle;rounded=0;orthogonalLoop=1;jettySize=auto;html=1;exitX=0.5;exitY=1;exitDx=0;exitDy=0;entryX=0.5;entryY=0;entryDx=0;entryDy=0;" edge="1" parent="1" source="FVXXeiRj1QKPrUbn_lMj-32" target="FVXXeiRj1QKPrUbn_lMj-1">
          <mxGeometry relative="1" as="geometry" />
        </mxCell>
        <mxCell id="UxKgNipJyTwT5KoMr4Kn-4" style="edgeStyle=orthogonalEdgeStyle;rounded=0;orthogonalLoop=1;jettySize=auto;html=1;exitX=0.5;exitY=0;exitDx=0;exitDy=0;shape=link;" edge="1" parent="1" source="FVXXeiRj1QKPrUbn_lMj-32" target="Yezbm0M-GNu2I1qRMzDH-3">
          <mxGeometry relative="1" as="geometry" />
        </mxCell>
        <mxCell id="FVXXeiRj1QKPrUbn_lMj-32" value="episode_judge" style="shape=rhombus;perimeter=rhombusPerimeter;whiteSpace=wrap;html=1;align=center;" parent="1" vertex="1">
          <mxGeometry x="1430" y="500" width="120" height="60" as="geometry" />
        </mxCell>
        <mxCell id="PZtOJaksMu6tY0Mp_Fj7-9" style="edgeStyle=orthogonalEdgeStyle;rounded=0;orthogonalLoop=1;jettySize=auto;html=1;exitX=0.5;exitY=1;exitDx=0;exitDy=0;entryX=0.75;entryY=0;entryDx=0;entryDy=0;shape=link;" parent="1" source="FVXXeiRj1QKPrUbn_lMj-33" target="PZtOJaksMu6tY0Mp_Fj7-1" edge="1">
          <mxGeometry relative="1" as="geometry" />
        </mxCell>
        <mxCell id="PZtOJaksMu6tY0Mp_Fj7-10" style="edgeStyle=orthogonalEdgeStyle;rounded=0;orthogonalLoop=1;jettySize=auto;html=1;exitX=0.5;exitY=0;exitDx=0;exitDy=0;" parent="1" source="FVXXeiRj1QKPrUbn_lMj-33" target="5_bJZATuuQAAXsXaT6q8-482" edge="1">
          <mxGeometry relative="1" as="geometry" />
        </mxCell>
        <mxCell id="FVXXeiRj1QKPrUbn_lMj-33" value="episode_chef" style="shape=rhombus;perimeter=rhombusPerimeter;whiteSpace=wrap;html=1;align=center;" parent="1" vertex="1">
          <mxGeometry x="1095" y="590" width="120" height="60" as="geometry" />
        </mxCell>
        <mxCell id="PZtOJaksMu6tY0Mp_Fj7-7" style="edgeStyle=orthogonalEdgeStyle;rounded=0;orthogonalLoop=1;jettySize=auto;html=1;exitX=1;exitY=0.5;exitDx=0;exitDy=0;entryX=0.25;entryY=0;entryDx=0;entryDy=0;shape=link;" parent="1" source="FVXXeiRj1QKPrUbn_lMj-34" target="PZtOJaksMu6tY0Mp_Fj7-1" edge="1">
          <mxGeometry relative="1" as="geometry" />
        </mxCell>
        <mxCell id="FVXXeiRj1QKPrUbn_lMj-34" value="episode_cuisine" style="shape=rhombus;perimeter=rhombusPerimeter;whiteSpace=wrap;html=1;align=center;" parent="1" vertex="1">
          <mxGeometry x="910" y="500" width="120" height="60" as="geometry" />
        </mxCell>
        <mxCell id="PZtOJaksMu6tY0Mp_Fj7-5" style="edgeStyle=orthogonalEdgeStyle;rounded=0;orthogonalLoop=1;jettySize=auto;html=1;exitX=1;exitY=0.5;exitDx=0;exitDy=0;entryX=0;entryY=0.5;entryDx=0;entryDy=0;shape=link;" parent="1" source="FVXXeiRj1QKPrUbn_lMj-35" target="PZtOJaksMu6tY0Mp_Fj7-1" edge="1">
          <mxGeometry relative="1" as="geometry" />
        </mxCell>
        <mxCell id="FVXXeiRj1QKPrUbn_lMj-35" value="episode_recipe" style="shape=rhombus;perimeter=rhombusPerimeter;whiteSpace=wrap;html=1;align=center;" parent="1" vertex="1">
          <mxGeometry x="840" y="630" width="120" height="60" as="geometry" />
        </mxCell>
        <mxCell id="PZtOJaksMu6tY0Mp_Fj7-1" value="episode_entry" style="swimlane;childLayout=stackLayout;horizontal=1;startSize=50;horizontalStack=0;rounded=1;fontSize=14;fontStyle=0;strokeWidth=2;resizeParent=0;resizeLast=1;shadow=0;dashed=0;align=center;arcSize=4;whiteSpace=wrap;html=1;" parent="1" vertex="1">
          <mxGeometry x="1034" y="713" width="160" height="120" as="geometry" />
        </mxCell>
        <mxCell id="PZtOJaksMu6tY0Mp_Fj7-3" value="&lt;font style=&quot;font-size: 14px;&quot;&gt;&lt;u&gt;episode_entry_id&lt;/u&gt;&lt;/font&gt;" style="text;html=1;align=center;verticalAlign=middle;resizable=0;points=[];autosize=1;strokeColor=none;fillColor=none;" parent="PZtOJaksMu6tY0Mp_Fj7-1" vertex="1">
          <mxGeometry y="50" width="160" height="70" as="geometry" />
        </mxCell>
        <mxCell id="PZtOJaksMu6tY0Mp_Fj7-11" style="edgeStyle=orthogonalEdgeStyle;rounded=0;orthogonalLoop=1;jettySize=auto;html=1;exitX=0;exitY=0.5;exitDx=0;exitDy=0;shape=link;" parent="1" source="PZtOJaksMu6tY0Mp_Fj7-4" target="PZtOJaksMu6tY0Mp_Fj7-3" edge="1">
          <mxGeometry relative="1" as="geometry" />
        </mxCell>
        <mxCell id="PZtOJaksMu6tY0Mp_Fj7-4" value="episode_has" style="shape=rhombus;perimeter=rhombusPerimeter;whiteSpace=wrap;html=1;align=center;" parent="1" vertex="1">
          <mxGeometry x="1420" y="768" width="120" height="60" as="geometry" />
        </mxCell>
        <mxCell id="PZtOJaksMu6tY0Mp_Fj7-6" style="edgeStyle=orthogonalEdgeStyle;rounded=0;orthogonalLoop=1;jettySize=auto;html=1;exitX=0;exitY=0.5;exitDx=0;exitDy=0;entryX=1;entryY=0.872;entryDx=0;entryDy=0;entryPerimeter=0;" parent="1" source="FVXXeiRj1QKPrUbn_lMj-35" target="5_bJZATuuQAAXsXaT6q8-6" edge="1">
          <mxGeometry relative="1" as="geometry" />
        </mxCell>
        <mxCell id="PZtOJaksMu6tY0Mp_Fj7-8" style="edgeStyle=orthogonalEdgeStyle;rounded=0;orthogonalLoop=1;jettySize=auto;html=1;exitX=0;exitY=0.5;exitDx=0;exitDy=0;entryX=0.219;entryY=1.036;entryDx=0;entryDy=0;entryPerimeter=0;" parent="1" source="FVXXeiRj1QKPrUbn_lMj-34" target="5_bJZATuuQAAXsXaT6q8-436" edge="1">
          <mxGeometry relative="1" as="geometry" />
        </mxCell>
        <mxCell id="PZtOJaksMu6tY0Mp_Fj7-14" style="edgeStyle=orthogonalEdgeStyle;rounded=0;orthogonalLoop=1;jettySize=auto;html=1;exitX=0.5;exitY=0;exitDx=0;exitDy=0;entryX=0.431;entryY=0.975;entryDx=0;entryDy=0;entryPerimeter=0;" parent="1" source="PZtOJaksMu6tY0Mp_Fj7-4" target="FVXXeiRj1QKPrUbn_lMj-3" edge="1">
          <mxGeometry relative="1" as="geometry" />
        </mxCell>
        <mxCell id="Yezbm0M-GNu2I1qRMzDH-1" value="judges" style="swimlane;childLayout=stackLayout;horizontal=1;startSize=50;horizontalStack=0;rounded=1;fontSize=14;fontStyle=0;strokeWidth=2;resizeParent=0;resizeLast=1;shadow=0;dashed=0;align=center;arcSize=4;whiteSpace=wrap;html=1;" parent="1" vertex="1">
          <mxGeometry x="1410" y="340" width="160" height="120" as="geometry" />
        </mxCell>
        <mxCell id="Yezbm0M-GNu2I1qRMzDH-3" value="j&lt;u&gt;&lt;font style=&quot;font-size: 14px;&quot;&gt;udge_id&lt;/font&gt;&lt;/u&gt;&lt;div&gt;&lt;u&gt;&lt;font style=&quot;font-size: 14px;&quot;&gt;&lt;br&gt;&lt;/font&gt;&lt;/u&gt;&lt;/div&gt;" style="text;html=1;align=center;verticalAlign=middle;resizable=0;points=[];autosize=1;strokeColor=none;fillColor=none;" parent="Yezbm0M-GNu2I1qRMzDH-1" vertex="1">
          <mxGeometry y="50" width="160" height="70" as="geometry" />
        </mxCell>
        <mxCell id="Yezbm0M-GNu2I1qRMzDH-4" value="select_judges" style="shape=rhombus;perimeter=rhombusPerimeter;whiteSpace=wrap;html=1;align=center;" parent="1" vertex="1">
          <mxGeometry x="1240" y="400" width="120" height="60" as="geometry" />
        </mxCell>
        <mxCell id="UxKgNipJyTwT5KoMr4Kn-2" style="edgeStyle=orthogonalEdgeStyle;rounded=0;orthogonalLoop=1;jettySize=auto;html=1;exitX=0.5;exitY=1;exitDx=0;exitDy=0;entryX=0.5;entryY=0;entryDx=0;entryDy=0;endArrow=none;endFill=0;" edge="1" parent="1" source="Yezbm0M-GNu2I1qRMzDH-5" target="UxKgNipJyTwT5KoMr4Kn-1">
          <mxGeometry relative="1" as="geometry" />
        </mxCell>
        <mxCell id="UxKgNipJyTwT5KoMr4Kn-6" style="edgeStyle=orthogonalEdgeStyle;rounded=0;orthogonalLoop=1;jettySize=auto;html=1;exitX=0;exitY=0.5;exitDx=0;exitDy=0;entryX=1;entryY=0.25;entryDx=0;entryDy=0;shape=link;" edge="1" parent="1" source="Yezbm0M-GNu2I1qRMzDH-5" target="PZtOJaksMu6tY0Mp_Fj7-1">
          <mxGeometry relative="1" as="geometry" />
        </mxCell>
        <mxCell id="Yezbm0M-GNu2I1qRMzDH-5" value="score" style="shape=rhombus;perimeter=rhombusPerimeter;whiteSpace=wrap;html=1;align=center;" parent="1" vertex="1">
          <mxGeometry x="1260" y="550" width="120" height="60" as="geometry" />
        </mxCell>
        <mxCell id="UxKgNipJyTwT5KoMr4Kn-1" value="value" style="whiteSpace=wrap;html=1;align=center;" vertex="1" parent="1">
          <mxGeometry x="1270" y="650" width="100" height="40" as="geometry" />
        </mxCell>
        <mxCell id="UxKgNipJyTwT5KoMr4Kn-5" style="edgeStyle=orthogonalEdgeStyle;rounded=0;orthogonalLoop=1;jettySize=auto;html=1;exitX=0.5;exitY=0;exitDx=0;exitDy=0;entryX=0.048;entryY=1.035;entryDx=0;entryDy=0;entryPerimeter=0;shape=link;" edge="1" parent="1" source="Yezbm0M-GNu2I1qRMzDH-5" target="Yezbm0M-GNu2I1qRMzDH-3">
          <mxGeometry relative="1" as="geometry" />
        </mxCell>
        <mxCell id="UxKgNipJyTwT5KoMr4Kn-7" style="edgeStyle=orthogonalEdgeStyle;rounded=0;orthogonalLoop=1;jettySize=auto;html=1;exitX=1;exitY=0.5;exitDx=0;exitDy=0;entryX=0.001;entryY=0.56;entryDx=0;entryDy=0;entryPerimeter=0;endArrow=none;endFill=0;shape=link;" edge="1" parent="1" source="Yezbm0M-GNu2I1qRMzDH-4" target="Yezbm0M-GNu2I1qRMzDH-3">
          <mxGeometry relative="1" as="geometry" />
        </mxCell>
        <mxCell id="UxKgNipJyTwT5KoMr4Kn-8" style="edgeStyle=orthogonalEdgeStyle;rounded=0;orthogonalLoop=1;jettySize=auto;html=1;exitX=0;exitY=0.5;exitDx=0;exitDy=0;entryX=0.8;entryY=1.024;entryDx=0;entryDy=0;entryPerimeter=0;endArrow=classic;endFill=1;" edge="1" parent="1" source="Yezbm0M-GNu2I1qRMzDH-4" target="5_bJZATuuQAAXsXaT6q8-482">
          <mxGeometry relative="1" as="geometry" />
        </mxCell>
      </root>
    </mxGraphModel>
  </diagram>
</mxfile>
